<svg width="64" height="64" viewBox="0 0 64 64" fill="none" xmlns="http://www.w3.org/2000/svg">
  <rect width="64" height="64" rx="18" fill="url(#bg)"/>
  <path
    d="M39.602 21.852C37.856 20.841 35.738 20.336 33.25 20.336C30.597 20.336 28.468 20.897 26.862 22.019C25.274 23.14 24.48 24.692 24.48 26.676C24.48 27.926 24.823 28.954 25.509 29.759C26.213 30.563 27.108 31.202 28.192 31.676C29.294 32.149 30.808 32.632 32.734 33.126C34.15 33.475 35.252 33.796 36.042 34.09C36.83 34.384 37.488 34.775 38.015 35.262C38.543 35.731 38.807 36.344 38.807 37.101C38.807 38.148 38.345 38.981 37.423 39.601C36.5 40.219 35.24 40.528 33.645 40.528C31.975 40.528 30.322 40.191 28.687 39.516C27.052 38.824 25.643 37.931 24.463 36.839L21.554 42.712C22.957 43.932 24.737 44.933 26.895 45.717C29.052 46.5 31.275 46.892 33.567 46.892C35.422 46.892 37.109 46.599 38.631 46.013C40.155 45.427 41.355 44.557 42.233 43.403C43.122 42.248 43.566 40.854 43.566 39.221C43.566 37.971 43.213 36.943 42.508 36.138C41.822 35.333 40.937 34.693 39.853 34.219C38.771 33.728 37.258 33.237 35.31 32.746C33.916 32.396 32.823 32.085 32.03 31.811C31.252 31.518 30.597 31.129 30.069 30.643C29.542 30.138 29.278 29.497 29.278 28.719C29.278 27.781 29.665 27.041 30.442 26.499C31.238 25.956 32.316 25.686 33.679 25.686C34.911 25.686 36.173 25.936 37.467 26.433C38.772 26.927 39.931 27.58 40.948 28.389L43.776 22.427C42.673 22.025 41.282 21.833 39.602 21.852Z"
    fill="white"
  />
  <defs>
    <linearGradient id="bg" x1="6" y1="6" x2="58" y2="58" gradientUnits="userSpaceOnUse">
      <stop stop-color="#FF5B6E"/>
      <stop offset="1" stop-color="#E72E62"/>
    </linearGradient>
  </defs>
</svg>
